<svg width="82" height="21" viewBox="0 0 82 21" fill="none" xmlns="http://www.w3.org/2000/svg">
<path d="M6.392 16.472V2.248H5.888L4.04 8.968H0.512V8.632L2.864 0.399999H10.088V16.472H14.96V20H0.848V16.472H6.392ZM22.3605 10.2C22.3605 9.56533 22.5939 9.01467 23.0605 8.548C23.5272 8.08133 24.0779 7.848 24.7125 7.848C25.3472 7.848 25.8979 8.08133 26.3645 8.548C26.8312 9.01467 27.0645 9.56533 27.0645 10.2C27.0645 10.8347 26.8312 11.3853 26.3645 11.852C25.8979 12.3187 25.3472 12.552 24.7125 12.552C24.0779 12.552 23.5272 12.3187 23.0605 11.852C22.5939 11.3853 22.3605 10.8347 22.3605 10.2ZM17.4885 8.016C17.4885 5.47733 18.1232 3.508 19.3925 2.108C20.6805 0.707999 22.4539 0.0079987 24.7125 0.0079987C26.9712 0.0079987 28.7352 0.707999 30.0045 2.108C31.2925 3.508 31.9365 5.47733 31.9365 8.016V12.384C31.9365 14.9973 31.2925 16.9853 30.0045 18.348C28.7352 19.7107 26.9712 20.392 24.7125 20.392C22.4539 20.392 20.6805 19.7107 19.3925 18.348C18.1232 16.9853 17.4885 14.9973 17.4885 12.384V8.016ZM24.7125 17.032C25.3845 17.032 25.9445 16.9293 26.3925 16.724C26.8405 16.5 27.2045 16.192 27.4845 15.8C27.7645 15.408 27.9605 14.9413 28.0725 14.4C28.1845 13.8587 28.2405 13.2613 28.2405 12.608V7.792C28.2405 7.176 28.1752 6.59733 28.0445 6.056C27.9139 5.51467 27.7085 5.048 27.4285 4.656C27.1485 4.264 26.7845 3.956 26.3365 3.732C25.8885 3.48933 25.3472 3.368 24.7125 3.368C24.0779 3.368 23.5365 3.48933 23.0885 3.732C22.6405 3.956 22.2765 4.264 21.9965 4.656C21.7165 5.048 21.5112 5.51467 21.3805 6.056C21.2499 6.59733 21.1845 7.176 21.1845 7.792V12.608C21.1845 13.2613 21.2405 13.8587 21.3525 14.4C21.4645 14.9413 21.6605 15.408 21.9405 15.8C22.2205 16.192 22.5845 16.5 23.0325 16.724C23.4805 16.9293 24.0405 17.032 24.7125 17.032ZM39.5051 10.2C39.5051 9.56533 39.7384 9.01467 40.2051 8.548C40.6717 8.08133 41.2224 7.848 41.8571 7.848C42.4917 7.848 43.0424 8.08133 43.5091 8.548C43.9757 9.01467 44.2091 9.56533 44.2091 10.2C44.2091 10.8347 43.9757 11.3853 43.5091 11.852C43.0424 12.3187 42.4917 12.552 41.8571 12.552C41.2224 12.552 40.6717 12.3187 40.2051 11.852C39.7384 11.3853 39.5051 10.8347 39.5051 10.2ZM34.6331 8.016C34.6331 5.47733 35.2677 3.508 36.5371 2.108C37.8251 0.707999 39.5984 0.0079987 41.8571 0.0079987C44.1157 0.0079987 45.8797 0.707999 47.1491 2.108C48.4371 3.508 49.0811 5.47733 49.0811 8.016V12.384C49.0811 14.9973 48.4371 16.9853 47.1491 18.348C45.8797 19.7107 44.1157 20.392 41.8571 20.392C39.5984 20.392 37.8251 19.7107 36.5371 18.348C35.2677 16.9853 34.6331 14.9973 34.6331 12.384V8.016ZM41.8571 17.032C42.5291 17.032 43.0891 16.9293 43.5371 16.724C43.9851 16.5 44.3491 16.192 44.6291 15.8C44.9091 15.408 45.1051 14.9413 45.2171 14.4C45.3291 13.8587 45.3851 13.2613 45.3851 12.608V7.792C45.3851 7.176 45.3197 6.59733 45.1891 6.056C45.0584 5.51467 44.8531 5.048 44.5731 4.656C44.2931 4.264 43.9291 3.956 43.4811 3.732C43.0331 3.48933 42.4917 3.368 41.8571 3.368C41.2224 3.368 40.6811 3.48933 40.2331 3.732C39.7851 3.956 39.4211 4.264 39.1411 4.656C38.8611 5.048 38.6557 5.51467 38.5251 6.056C38.3944 6.59733 38.3291 7.176 38.3291 7.792V12.608C38.3291 13.2613 38.3851 13.8587 38.4971 14.4C38.6091 14.9413 38.8051 15.408 39.0851 15.8C39.3651 16.192 39.7291 16.5 40.1771 16.724C40.6251 16.9293 41.1851 17.032 41.8571 17.032ZM57.2656 11.208H57.9376L61.6336 6.112H65.4976V6.28L61.0176 12.636V13.14L65.9456 19.832V20H61.9136L57.9376 14.568H57.2656V20H53.7376V0.399999H57.2656V11.208ZM70.2941 8.604H74.5501V4.348H77.7421V8.604H81.9981V11.796H77.7421V16.052H74.5501V11.796H70.2941V8.604Z" fill="white"/>
</svg>
