<svg width="82" height="21" viewBox="0 0 82 21" fill="none" xmlns="http://www.w3.org/2000/svg">
<path d="M14.596 16.472V20H0.82V16.136C0.82 15.1093 0.969333 14.232 1.268 13.504C1.58533 12.776 2.024 12.16 2.584 11.656C3.16267 11.152 3.85333 10.7413 4.656 10.424C5.45867 10.088 6.364 9.808 7.372 9.584C8.11867 9.416 8.72533 9.22933 9.192 9.024C9.67733 8.8 10.06 8.55733 10.34 8.296C10.62 8.016 10.8067 7.71733 10.9 7.4C11.012 7.064 11.068 6.69067 11.068 6.28C11.068 5.496 10.7787 4.84267 10.2 4.32C9.64 3.79733 8.856 3.536 7.848 3.536C6.784 3.536 5.93467 3.86267 5.3 4.516C4.66533 5.15067 4.348 6.03733 4.348 7.176V8.408H0.652V6.84C0.652 5.92533 0.810667 5.05733 1.128 4.236C1.464 3.396 1.93067 2.668 2.528 2.052C3.144 1.41733 3.89067 0.922666 4.768 0.568C5.64533 0.194666 6.63467 0.0079987 7.736 0.0079987C8.912 0.0079987 9.93867 0.185332 10.816 0.539999C11.6933 0.875999 12.4213 1.324 13 1.884C13.5973 2.444 14.036 3.09733 14.316 3.844C14.6147 4.572 14.764 5.328 14.764 6.112V6.448C14.764 8.09067 14.2973 9.45333 13.364 10.536C12.4493 11.6187 10.9467 12.4027 8.856 12.888C7.97867 13.0933 7.25067 13.308 6.672 13.532C6.112 13.7373 5.67333 13.9707 5.356 14.232C5.03867 14.4933 4.81467 14.7827 4.684 15.1C4.572 15.3987 4.516 15.744 4.516 16.136V16.472H14.596ZM22.6405 0.399999H29.6405V12.776H32.4965V16.304H29.6405V20H25.9445V16.304H17.2085V11.208L22.6405 0.399999ZM20.4005 12.272V12.776H25.9445V2.248H25.4405L20.4005 12.272ZM39.5051 10.2C39.5051 9.56533 39.7384 9.01467 40.2051 8.548C40.6717 8.08133 41.2224 7.848 41.8571 7.848C42.4917 7.848 43.0424 8.08133 43.5091 8.548C43.9757 9.01467 44.2091 9.56533 44.2091 10.2C44.2091 10.8347 43.9757 11.3853 43.5091 11.852C43.0424 12.3187 42.4917 12.552 41.8571 12.552C41.2224 12.552 40.6717 12.3187 40.2051 11.852C39.7384 11.3853 39.5051 10.8347 39.5051 10.2ZM34.6331 8.016C34.6331 5.47733 35.2677 3.508 36.5371 2.108C37.8251 0.707999 39.5984 0.0079987 41.8571 0.0079987C44.1157 0.0079987 45.8797 0.707999 47.1491 2.108C48.4371 3.508 49.0811 5.47733 49.0811 8.016V12.384C49.0811 14.9973 48.4371 16.9853 47.1491 18.348C45.8797 19.7107 44.1157 20.392 41.8571 20.392C39.5984 20.392 37.8251 19.7107 36.5371 18.348C35.2677 16.9853 34.6331 14.9973 34.6331 12.384V8.016ZM41.8571 17.032C42.5291 17.032 43.0891 16.9293 43.5371 16.724C43.9851 16.5 44.3491 16.192 44.6291 15.8C44.9091 15.408 45.1051 14.9413 45.2171 14.4C45.3291 13.8587 45.3851 13.2613 45.3851 12.608V7.792C45.3851 7.176 45.3197 6.59733 45.1891 6.056C45.0584 5.51467 44.8531 5.048 44.5731 4.656C44.2931 4.264 43.9291 3.956 43.4811 3.732C43.0331 3.48933 42.4917 3.368 41.8571 3.368C41.2224 3.368 40.6811 3.48933 40.2331 3.732C39.7851 3.956 39.4211 4.264 39.1411 4.656C38.8611 5.048 38.6557 5.51467 38.5251 6.056C38.3944 6.59733 38.3291 7.176 38.3291 7.792V12.608C38.3291 13.2613 38.3851 13.8587 38.4971 14.4C38.6091 14.9413 38.8051 15.408 39.0851 15.8C39.3651 16.192 39.7291 16.5 40.1771 16.724C40.6251 16.9293 41.1851 17.032 41.8571 17.032ZM57.2656 11.208H57.9376L61.6336 6.112H65.4976V6.28L61.0176 12.636V13.14L65.9456 19.832V20H61.9136L57.9376 14.568H57.2656V20H53.7376V0.399999H57.2656V11.208ZM70.2941 8.604H74.5501V4.348H77.7421V8.604H81.9981V11.796H77.7421V16.052H74.5501V11.796H70.2941V8.604Z" fill="white"/>
</svg>
